<svg width="240" height="240" viewBox="0 0 240 240" fill="none" xmlns="http://www.w3.org/2000/svg">
<path d="M112.57 0.0399564C108.87 0.139956 105.22 0.439956 101.57 0.989956C96.1701 1.52996 90.7701 4.23996 84.8201 6.93996C77.2501 10.18 69.6701 13.43 62.6401 13.97C50.7401 17.75 46.9601 23.16 43.7201 27.48C43.7201 28.02 43.1801 28.56 43.1801 28.56C38.8501 37.21 38.3101 45.86 39.9301 54.51C41.5501 59.92 43.7101 64.8 45.3301 69.66C49.1301 79.94 52.9101 89.66 54.5301 101.02C56.1601 104.27 57.7701 108.59 58.8501 112.92C61.5501 121.57 64.2701 131.3 72.3801 138.87L72.4401 138.84C72.6101 139.03 72.7401 139.24 72.9201 139.41L73.1301 139.31L72.9301 133.47C79.4101 123.73 88.5901 117.24 101.57 114.54C106.77 113.44 112.38 113.04 118.2 113.26C124.259 113.423 130.284 114.214 136.18 115.62C150.78 119.4 162.13 126.98 162.68 133.47C162.95 137.01 163.08 140.42 163 143.83C163 144.47 162.96 145.11 162.93 145.76L164.29 146.44C165.109 145.967 165.813 145.318 166.35 144.54L166.38 144.51L166.44 144.43C166.84 143.89 167.19 143.19 167.54 142.49C167.74 142.12 167.92 141.63 168.1 141.2C170.15 136.58 171.72 129.67 173.48 121.57C174.02 118.87 174.58 116.7 175.11 114.54C179.44 104.81 185.38 96.1599 191.33 88.0399C201.06 74.5399 210.25 62.09 209.17 47.49C191.33 12.88 166.45 7.46996 153.47 4.76996C151.31 4.22996 150.24 4.22996 148.62 3.68996C135.24 1.24996 123.68 -0.270044 112.57 0.0399564ZM163 143.83C163.057 140.55 162.95 137.269 162.68 134C162.14 126.97 150.78 119.4 135.64 115.62C129.912 114.297 124.074 113.507 118.2 113.26C112.985 113.085 107.767 113.515 102.65 114.54C90.2101 117.24 80.4901 123.74 74.5401 133.46L75.0501 147.77C81.7201 144.22 92.3801 139.03 106.45 137.77C107.1 137.72 107.81 137.72 108.49 137.68C109.66 137.55 111.15 137.24 112.93 137.24C129 137.24 145.61 142.58 161.7 153.72C162.09 150.98 162.3 148.23 162.4 145.49L162.85 145.72C162.87 145.09 162.99 144.45 163 143.82V143.83ZM112.56 0.579956C113.8 0.539956 115.1 0.679956 116.35 0.689956C114.05 0.669956 111.76 0.719956 109.48 0.849956C110.51 0.789956 111.53 0.609956 112.56 0.579956ZM104.4 1.29996C103.64 1.38996 102.87 1.42996 102.11 1.53996C93.9401 2.70996 84.3701 8.54996 74.6101 11.99C78.1601 10.67 81.7501 9.02996 85.3601 7.48996C90.7601 4.78996 96.7101 2.07996 101.57 1.53996C102.51 1.39996 103.46 1.40996 104.4 1.29996ZM102.11 3.69996C103.73 3.69996 105.9 3.69996 107.52 4.23996C106.306 3.9622 105.051 3.91471 103.82 4.09996C104.9 4.17984 105.963 4.40867 106.98 4.77996C112.78 14.78 102.72 57.57 100.19 86.27C101.75 96.54 103.33 106.23 104.82 113.47C97.7901 95.63 90.7601 64.26 89.6701 39.93C89.1301 30.2 89.6801 21.54 91.8501 15.06C94.0001 8.54996 97.2501 4.22996 102.1 3.68996L102.11 3.69996ZM133.47 6.39996C125.37 27.5 124.29 67.5 123.75 79.94C123.21 85.34 123.75 97.2399 124.29 105.89C124.29 108.05 124.83 110.21 124.83 112.38C124.83 110.21 124.29 108.59 124.29 106.43C119.96 73.9899 114.55 35.07 133.47 6.40996V6.39996ZM166.99 10.19C164.29 31.81 152.94 42.09 149.16 63.19C148.08 79.95 145.91 99.4099 145.37 116.17C144.83 99.4099 145.37 81.57 148.07 63.72C150.77 45.34 156.72 26.95 166.99 10.19ZM65.3001 16.47C67.5313 16.4446 69.6841 17.2914 71.3001 18.83L71.1601 18.76C72.4901 19.68 73.8201 20.85 75.0901 22.6C73.0501 32.28 77.6401 52.92 75.4901 69.3C76.2501 84.78 76.2001 101.1 83.9801 113.89C74.1801 98.79 72.2201 79.51 70.7601 61.53C69.6301 50.63 68.7201 40.56 66.1201 32.5C64.6801 29.45 63.4301 26.75 62.2801 24.28C62.0401 23.91 61.8401 23.49 61.5801 23.14C60.6003 22.1216 60.0245 20.7816 59.9601 19.37C59.9601 18.83 60.4901 17.75 61.0401 17.75C61.5801 17.21 62.6501 17.19 63.1901 16.65C63.882 16.5171 64.5858 16.4568 65.2901 16.47H65.3001ZM51.8301 22.6C51.2301 22.8 50.9101 23.01 50.4301 23.21C52.2001 22.87 54.0501 23.55 55.6301 26.39C53.7501 35.31 59.9901 60.08 59.9101 77.43C63.0401 95.91 65.4101 115.93 75.6301 128.58C63.7301 115.07 58.8701 91.28 55.0901 71.27C51.8401 55.59 49.1301 42.07 43.7301 37.75C43.1901 36.67 42.6501 36.12 42.6501 35.04C42.6501 33.42 42.6501 31.25 43.7301 29.09C40.9601 35.43 39.6801 41.76 40.0301 48.1C39.6208 41.5514 40.8946 35.007 43.7301 29.09C43.7301 28.55 44.2701 28.55 44.2701 28.01C44.3901 27.85 44.5801 27.66 44.7101 27.5C45.2876 26.5033 46.0555 25.6301 46.9701 24.93C47.5201 24.32 47.9301 23.73 48.5601 23.11C48.0301 23.67 47.6801 24.21 47.2201 24.76C47.4901 24.58 47.7401 24.39 48.0601 24.24C48.5322 23.7098 49.1139 23.2886 49.7648 23.0054C50.4157 22.7223 51.1204 22.5839 51.8301 22.6ZM48.0601 24.24C48.0201 24.31 47.9801 24.34 47.9401 24.42L48.3101 24.12L48.0601 24.24ZM195.66 35.58L195.61 35.73C195.99 35.68 196.36 35.56 196.74 35.58C196.37 35.56 195.98 35.68 195.59 35.78C186.96 62.2 176.72 88.6199 166.48 115.04C166.474 115.051 166.468 115.061 166.46 115.07C165.59 119.72 164.12 123.91 161.06 126.97C165.39 122.1 165.92 115.06 166.46 106.41C167 98.3 167 89.65 171.33 80.99C171.33 80.46 171.34 79.94 171.86 79.4L171.87 79.38C172.84 75.85 173.89 72.49 175.04 69.2C179.22 56.3 186.44 37.54 195.17 35.8C195.33 35.74 195.51 35.61 195.67 35.58H195.66ZM83.7401 162.1L80.5001 163.18C82.1201 165.35 83.2001 166.98 84.2801 167.51C85.4309 168.187 86.7354 168.559 88.0701 168.59C88.6101 168.59 89.6801 168.59 90.2201 168.05L98.3401 165.35C98.8801 165.35 99.4201 164.81 99.9601 164.81C101.04 164.81 101.58 164.81 102.66 165.35L105.37 168.05L108.07 167.51C106.99 165.89 105.37 164.28 104.29 163.74C103.21 163.2 102.12 162.64 100.5 162.64H99.4201L90.7601 165.89H89.1501C88.0601 165.89 86.9901 165.89 86.4501 165.35C85.9101 164.81 84.8201 163.73 83.7401 162.1ZM57.7801 167.51C55.0801 169.13 51.2901 171.84 45.8801 174C40.4801 176.16 36.1501 178.33 33.9801 180.49C31.8301 182.65 30.7501 184.81 30.7501 186.98C30.7501 188.06 31.2901 188.61 32.3701 189.15C32.9101 189.69 34.0001 189.69 34.5401 190.23C42.1101 193.47 49.6801 197.25 56.7001 201.03C57.7901 201.57 58.8701 202.66 59.4201 203.2C59.9601 203.74 60.4901 203.74 61.0301 203.74C62.1201 203.74 63.7301 203.21 64.8101 202.12C65.8901 201.04 66.4401 199.95 66.4401 198.87C66.4401 197.79 65.8901 197.26 64.8101 196.72C64.8101 196.72 60.4801 194.55 52.9101 191.31C48.843 189.548 44.8769 187.562 41.0301 185.36C42.6501 182.66 45.8901 180.49 50.7601 178.33C56.1601 176.17 59.9601 174 61.5701 172.38C62.1101 171.84 62.1101 171.3 62.1101 170.76C61.9759 169.945 61.5996 169.189 61.0301 168.59C60.2898 167.916 59.3309 167.533 58.3301 167.51H57.7801ZM170.25 167.51C169.438 167.644 168.685 168.02 168.09 168.59C167.55 169.67 167 170.22 167 170.76V171.3C168.62 172.92 170.8 174 174.04 175.08C176.74 175.62 179.44 176.71 182.15 177.25C185.39 178.33 187.55 179.95 188.64 182.11V182.66C188.64 183.2 187.55 184.28 185.39 185.36C184.31 185.9 182.14 187.53 179.44 189.69C176.74 191.31 175.11 192.92 173.49 193.46C171.33 194.55 169.71 195.63 169.17 196.72C168.63 197.26 168.63 197.79 168.63 198.33C168.63 199.41 169.17 199.41 169.71 200.49C170.25 201.57 171.33 201.59 171.87 201.59C172.41 201.59 172.95 201.03 173.49 201.03C176.19 199.41 179.99 197.25 184.31 193.46C189.17 189.68 192.96 186.98 195.13 185.36C197.29 184.28 198.36 183.19 198.36 181.56C198.36 181.03 198.36 179.95 197.28 179.41C193.5 175.08 188.1 172.39 181.61 170.22C180.53 169.68 178.91 169.13 175.66 168.59C174.04 168.05 172.41 167.51 171.33 167.51H170.25ZM140.51 175.61C137.81 175.61 135.64 176.17 134.02 177.79C131.86 179.41 131.32 182.11 131.86 185.36C131.86 188.06 132.94 190.22 134.56 192.39C136.18 194.55 138.35 195.64 140.51 195.64C142.13 195.64 143.21 195.08 144.84 194.54C147.54 192.92 148.63 190.22 148.63 185.36C148.63 181.57 147.54 178.87 145.92 177.26C144.335 176.156 142.441 175.582 140.51 175.62V175.61ZM95.6301 176.16C92.9301 176.16 90.7701 176.71 89.1501 178.33C86.9801 179.95 86.4501 182.65 86.9901 185.9C86.9901 188.6 88.0601 190.76 89.6901 192.92C91.3201 195.08 93.4701 196.18 95.6301 196.18C97.2601 196.18 98.3401 195.62 99.9601 195.08C102.66 193.46 103.74 190.76 103.74 185.9C103.74 181.57 102.66 178.87 101.04 177.8C99.4579 176.698 97.568 176.124 95.6401 176.16H95.6301ZM95.6301 182.66C97.2601 182.66 98.3401 183.74 98.3401 185.36C98.3401 186.98 96.7101 188.06 95.6401 188.06C94.0101 188.06 92.9401 186.98 92.9401 185.36C92.9401 183.74 94.0101 182.66 95.6401 182.66H95.6301ZM139.43 183.2C141.05 183.2 142.14 184.27 142.14 185.9C142.14 186.98 141.05 188.6 139.44 188.6C137.81 188.6 136.74 187.52 136.74 185.9C136.74 184.27 137.81 183.2 139.44 183.2H139.43ZM112.4 204.28L114.02 207.52C114.567 208.548 115.3 209.467 116.18 210.23C116.72 210.77 117.81 211.85 118.88 211.85H119.97C121.05 211.85 121.58 211.85 122.12 211.31C122.66 210.77 123.76 210.77 124.3 210.23L125.91 208.61C126.45 208.07 126.99 207.52 126.99 206.98C127.53 206.44 127.53 205.9 128.07 205.36C128.07 204.82 128.61 204.28 128.61 204.28C128.07 205.36 126.99 206.44 126.45 207.52C125.37 208.06 124.84 209.15 123.75 209.15C122.68 209.69 121.59 209.69 120.51 209.69C119.43 209.69 118.35 209.69 117.81 209.15C116.73 209.15 116.18 208.61 115.64 208.07L114.02 206.44C113.48 205.9 112.94 204.82 112.4 204.28ZM103.74 214.56C92.3801 214.56 85.3601 229.7 69.1401 216.18C64.8201 242.68 96.7201 244.84 110.24 233.48C119.44 225.38 116.72 214.02 103.74 214.56ZM132.4 214.56C119.43 214.02 116.72 225.38 125.92 233.49C139.43 244.84 171.32 242.67 167 216.18C150.78 229.7 144.3 214.56 132.4 214.56Z" fill="#C1B588"/>
</svg>
