<svg width="374" height="286" viewBox="0 0 374 286" fill="none" xmlns="http://www.w3.org/2000/svg">
<path d="M0 93C0 83.0589 8.05888 75 18 75H65C74.9411 75 83 83.0589 83 93V268C83 277.941 74.9411 286 65 286H18C8.05887 286 0 277.941 0 268V93Z" fill="#FFD400"/>
<path d="M145 18C145 8.05888 153.059 0 163 0H210C219.941 0 228 8.05888 228 18V268C228 277.941 219.941 286 210 286H163C153.059 286 145 277.941 145 268V18Z" fill="#4F81C1"/>
<path d="M291 122C291 112.059 299.059 104 309 104H356C365.941 104 374 112.059 374 122V268C374 277.941 365.941 286 356 286H309C299.059 286 291 277.941 291 268V122Z" fill="#AE0F0A"/>
</svg>
